<svg xmlns="http://www.w3.org/2000/svg" viewBox="0 0 192.35 73"><defs><style>.cls-1{fill:#fff;}</style></defs><title>logo</title><g id="Layer_2" data-name="Layer 2"><g id="Notes"><path class="cls-1" d="M7,46.3H29.3v5.86H0V.58H7Z"/><path class="cls-1" d="M82,26.39A29.9,29.9,0,0,1,80.21,37,24.42,24.42,0,0,1,75,45.36a23.2,23.2,0,0,1-8,5.42A27.23,27.23,0,0,1,56.59,52.7a27.09,27.09,0,0,1-10.37-1.92,23.22,23.22,0,0,1-8-5.42A24.42,24.42,0,0,1,33,37a29.9,29.9,0,0,1-1.83-10.64A29.86,29.86,0,0,1,33,15.75,24.51,24.51,0,0,1,38.2,7.4a23.31,23.31,0,0,1,8-5.46A26.91,26.91,0,0,1,56.59,0,27,27,0,0,1,67,1.94,23.3,23.3,0,0,1,75,7.4a24.51,24.51,0,0,1,5.19,8.35A29.86,29.86,0,0,1,82,26.39Zm-7.16,0a26,26,0,0,0-1.3-8.53,17.89,17.89,0,0,0-3.67-6.39,15.93,15.93,0,0,0-5.76-4,21,21,0,0,0-15.08,0,16.18,16.18,0,0,0-5.78,4,17.78,17.78,0,0,0-3.69,6.39,26.3,26.3,0,0,0-1.3,8.53,26.13,26.13,0,0,0,1.3,8.51,17.78,17.78,0,0,0,3.69,6.37,15.88,15.88,0,0,0,5.78,4,21.15,21.15,0,0,0,15.08,0,15.64,15.64,0,0,0,5.76-4,17.89,17.89,0,0,0,3.67-6.37A25.87,25.87,0,0,0,74.88,26.39Z"/><path class="cls-1" d="M114.59,47.09a34.53,34.53,0,0,0,3.83-.2,24.69,24.69,0,0,0,3.29-.59,23.24,23.24,0,0,0,2.92-1c.91-.37,1.82-.8,2.74-1.28V32.69h-8a1.49,1.49,0,0,1-1.1-.4,1.28,1.28,0,0,1-.42-1v-4H133.7v19.8a28,28,0,0,1-4,2.45,27.12,27.12,0,0,1-4.5,1.74,32.3,32.3,0,0,1-5.13,1,47.57,47.57,0,0,1-5.94.34,26.67,26.67,0,0,1-10.29-1.93,23.66,23.66,0,0,1-8.07-5.4,24.52,24.52,0,0,1-5.27-8.33,29.24,29.24,0,0,1-1.89-10.69,30.13,30.13,0,0,1,1.85-10.77A23.19,23.19,0,0,1,104,1.91,29.84,29.84,0,0,1,115,0a33.63,33.63,0,0,1,5.68.45,26,26,0,0,1,4.88,1.3,22.05,22.05,0,0,1,4.16,2.05,25.48,25.48,0,0,1,3.57,2.72l-2,3.16a1.81,1.81,0,0,1-1.58,1,2.63,2.63,0,0,1-1.26-.4c-.6-.34-1.27-.74-2-1.22a17.12,17.12,0,0,0-2.72-1.39,22.19,22.19,0,0,0-3.78-1.13,24.44,24.44,0,0,0-5.17-.47,20.87,20.87,0,0,0-7.88,1.42,16.71,16.71,0,0,0-6,4.07A18.06,18.06,0,0,0,97,18a25.08,25.08,0,0,0-1.33,8.44,25.71,25.71,0,0,0,1.38,8.73,18.63,18.63,0,0,0,3.91,6.5,16.8,16.8,0,0,0,6,4.06A20,20,0,0,0,114.59,47.09Z"/><path class="cls-1" d="M192.35,26.39A29.68,29.68,0,0,1,190.51,37a24.4,24.4,0,0,1-5.18,8.33,23.34,23.34,0,0,1-8.05,5.42,29,29,0,0,1-20.75,0,23.26,23.26,0,0,1-8-5.42A24.58,24.58,0,0,1,143.31,37a29.9,29.9,0,0,1-1.83-10.64,29.86,29.86,0,0,1,1.83-10.64A24.66,24.66,0,0,1,148.5,7.4a23.36,23.36,0,0,1,8-5.46,28.71,28.71,0,0,1,20.75,0,23.44,23.44,0,0,1,8.05,5.46,24.49,24.49,0,0,1,5.18,8.35A29.64,29.64,0,0,1,192.35,26.39Zm-7.17,0a26.31,26.31,0,0,0-1.29-8.53,18.06,18.06,0,0,0-3.68-6.39,15.93,15.93,0,0,0-5.76-4,21,21,0,0,0-15.08,0,16.18,16.18,0,0,0-5.78,4,18.08,18.08,0,0,0-3.69,6.39,26.31,26.31,0,0,0-1.29,8.53,26.14,26.14,0,0,0,1.29,8.51,18.08,18.08,0,0,0,3.69,6.37,15.88,15.88,0,0,0,5.78,4,21.15,21.15,0,0,0,15.08,0,15.64,15.64,0,0,0,5.76-4,18.06,18.06,0,0,0,3.68-6.37A26.14,26.14,0,0,0,185.18,26.39Z"/><path class="cls-1" d="M50.09,67.48v5.36H48.16V58.51h4.23a7.88,7.88,0,0,1,2.36.32,4.51,4.51,0,0,1,1.67.89,3.53,3.53,0,0,1,1,1.4A4.89,4.89,0,0,1,57.73,63a4.7,4.7,0,0,1-.35,1.83,3.94,3.94,0,0,1-1,1.43,4.82,4.82,0,0,1-1.67.94,7.31,7.31,0,0,1-2.29.33Zm0-1.54h2.3a4.35,4.35,0,0,0,1.46-.22,3.09,3.09,0,0,0,1.07-.61,2.6,2.6,0,0,0,.65-1A3.18,3.18,0,0,0,55.79,63a2.73,2.73,0,0,0-.85-2.14A3.68,3.68,0,0,0,52.39,60h-2.3Z"/><path class="cls-1" d="M62.12,71.21h6.2v1.63H60.18V58.51h1.94Z"/><path class="cls-1" d="M82.25,72.84h-1.5a.64.64,0,0,1-.42-.13.78.78,0,0,1-.24-.33l-1.34-3.46H72.32L71,72.38a.82.82,0,0,1-.24.32.64.64,0,0,1-.42.14h-1.5l5.73-14.33h2Zm-9.39-5.32h5.35L76,61.69a10.36,10.36,0,0,1-.43-1.35c-.07.27-.15.53-.22.76a4.67,4.67,0,0,1-.2.6Z"/><path class="cls-1" d="M93.74,69.88A.39.39,0,0,1,94,70l.76.83a6.15,6.15,0,0,1-2.14,1.59,8,8,0,0,1-5.83,0A6.22,6.22,0,0,1,84.67,71a7,7,0,0,1-1.38-2.32,8.57,8.57,0,0,1-.49-3,8.13,8.13,0,0,1,.52-3,6.88,6.88,0,0,1,1.48-2.32,6.43,6.43,0,0,1,2.27-1.5A7.72,7.72,0,0,1,90,58.35a6.55,6.55,0,0,1,4.76,1.82l-.63.89a.87.87,0,0,1-.16.17.48.48,0,0,1-.26.06.54.54,0,0,1-.28-.09L93.09,61l-.47-.3a3.48,3.48,0,0,0-.64-.3,5.31,5.31,0,0,0-.86-.23A5.46,5.46,0,0,0,90,60a5.36,5.36,0,0,0-2.11.4,4.65,4.65,0,0,0-1.64,1.12,5.21,5.21,0,0,0-1.08,1.78,6.94,6.94,0,0,0-.38,2.35,7.09,7.09,0,0,0,.38,2.39,5.48,5.48,0,0,0,1,1.78A4.46,4.46,0,0,0,87.79,71a5.11,5.11,0,0,0,2,.38,8,8,0,0,0,1.15-.07,4.46,4.46,0,0,0,.94-.24,4.36,4.36,0,0,0,.81-.4,6.51,6.51,0,0,0,.76-.59A.49.49,0,0,1,93.74,69.88Z"/><path class="cls-1" d="M106.17,58.51v1.58H99.29v4.76h5.57v1.52H99.29v4.89h6.88v1.58H97.34V58.51Z"/><path class="cls-1" d="M120.58,72.84h-2V66.32h-7.72v6.52h-2V58.51h2V64.9h7.72V58.51h2Z"/><path class="cls-1" d="M137.39,65.68a8.33,8.33,0,0,1-.51,3A6.84,6.84,0,0,1,135.44,71a6.43,6.43,0,0,1-2.23,1.51,7.74,7.74,0,0,1-2.89.53,7.65,7.65,0,0,1-2.88-.53A6.43,6.43,0,0,1,125.21,71a6.84,6.84,0,0,1-1.44-2.31,8.33,8.33,0,0,1-.51-3,8.23,8.23,0,0,1,.51-3,6.79,6.79,0,0,1,1.44-2.32,6.45,6.45,0,0,1,2.23-1.52,7.46,7.46,0,0,1,2.88-.54,7.55,7.55,0,0,1,2.89.54,6.45,6.45,0,0,1,2.23,1.52,6.79,6.79,0,0,1,1.44,2.32A8.23,8.23,0,0,1,137.39,65.68Zm-2,0a7.28,7.28,0,0,0-.36-2.37,5,5,0,0,0-1-1.77,4.33,4.33,0,0,0-1.6-1.12,5.82,5.82,0,0,0-4.19,0,4.45,4.45,0,0,0-1.61,1.12,5,5,0,0,0-1,1.77,8,8,0,0,0,0,4.74,5.14,5.14,0,0,0,1,1.77,4.55,4.55,0,0,0,1.61,1.11,6,6,0,0,0,4.19,0,4.43,4.43,0,0,0,1.6-1.11,5.14,5.14,0,0,0,1-1.77A7.28,7.28,0,0,0,135.4,65.68Z"/><path class="cls-1" d="M142,71.21h6.2v1.63H140V58.51H142Z"/><path class="cls-1" d="M162.74,65.68a8.08,8.08,0,0,1-.51,2.93,6.53,6.53,0,0,1-1.44,2.26,6.45,6.45,0,0,1-2.23,1.46,7.85,7.85,0,0,1-2.88.51h-5.36V58.51h5.36a7.65,7.65,0,0,1,2.88.52,6.31,6.31,0,0,1,2.23,1.46,6.53,6.53,0,0,1,1.44,2.26A8.08,8.08,0,0,1,162.74,65.68Zm-2,0a7.18,7.18,0,0,0-.36-2.36,5,5,0,0,0-1-1.76,4.28,4.28,0,0,0-1.6-1.1,5.6,5.6,0,0,0-2.09-.38h-3.41V71.27h3.41a5.6,5.6,0,0,0,2.09-.38,4.38,4.38,0,0,0,1.6-1.09,5,5,0,0,0,1-1.76A7.18,7.18,0,0,0,160.75,65.68Z"/><path class="cls-1" d="M174.21,58.51v1.58h-6.88v4.76h5.57v1.52h-5.57v4.89h6.88v1.58h-8.83V58.51Z"/><path class="cls-1" d="M179.13,66.86v6H177.2V58.51h4.05a8.55,8.55,0,0,1,2.35.28,4.35,4.35,0,0,1,1.63.79,3.17,3.17,0,0,1,1,1.26,4.41,4.41,0,0,1,.07,3.06,3.67,3.67,0,0,1-.7,1.19,4.21,4.21,0,0,1-1.1.89,5.62,5.62,0,0,1-1.49.56,2,2,0,0,1,.64.61l4.18,5.69h-1.72a.86.86,0,0,1-.78-.41l-3.72-5.12a1.06,1.06,0,0,0-.37-.34,1.31,1.31,0,0,0-.6-.11Zm0-1.41h2a5.12,5.12,0,0,0,1.49-.2,3.1,3.1,0,0,0,1.08-.58,2.45,2.45,0,0,0,.66-.9,2.88,2.88,0,0,0,.22-1.15,2.27,2.27,0,0,0-.85-1.93,4.09,4.09,0,0,0-2.51-.65h-2.12Z"/></g></g></svg>