<?xml version="1.0" encoding="utf-8"?>
<!-- Generator: Adobe Illustrator 16.0.0, SVG Export Plug-In . SVG Version: 6.00 Build 0)  -->
<!DOCTYPE svg PUBLIC "-//W3C//DTD SVG 1.1//EN" "http://www.w3.org/Graphics/SVG/1.1/DTD/svg11.dtd">
<svg version="1.1" id="Layer_1" xmlns="http://www.w3.org/2000/svg" xmlns:xlink="http://www.w3.org/1999/xlink" x="0px" y="0px"
	 width="750px" height="41.956px" viewBox="-1.333 144.826 750 41.956" enable-background="new -1.333 144.826 750 41.956"
	 xml:space="preserve">
<g>
	<g>
		<path fill="#FFFFFF" d="M24.666,155.267l-3.807-10.44h-7.152l-3.848,10.44l-11.191,30.366h6.481
			c0.681-1.937,1.4-3.942,2.156-6.019c0.755-2.075,1.484-4.082,2.187-6.02h15.455h6.403L24.666,155.267z M11.439,168.391
			c1.022-2.789,2.006-5.459,2.954-8.014c0.62-1.673,1.255-3.384,1.898-5.11c0.339-0.912,0.677-1.819,1.022-2.746l0.978,2.746
			l4.674,13.124H11.439z"/>
	</g>
	<polygon fill="#FFFFFF" points="88.116,175.766 75.846,155.267 69.596,144.826 62.508,144.826 62.508,155.267 62.508,185.633 
		68.543,185.633 68.543,155.267 68.543,154.469 69.016,155.267 87.031,185.633 94.151,185.633 	"/>
	<g>
		<path fill="#FFFFFF" d="M215.48,182.823c-0.319-0.938-0.479-1.809-0.479-2.618v-5.972c0-0.767-0.069-1.537-0.207-2.314
			c-0.139-0.776-0.368-1.521-0.687-2.234s-0.74-1.368-1.262-1.965c-0.521-0.596-1.165-1.097-1.931-1.5
			c1.511-1.15,2.655-2.555,3.433-4.215c0.777-1.661,1.166-3.416,1.166-5.27c0-0.489-0.046-0.979-0.113-1.469
			c-0.125-0.921-0.356-1.848-0.717-2.777c-0.554-1.426-1.373-2.703-2.458-3.832s-2.427-2.049-4.023-2.762
			c-1.596-0.713-3.428-1.069-5.492-1.069H185.72v10.44v13.507h6.035h10.952c1.149,0,2.124,0.161,2.921,0.479
			c0.799,0.32,1.448,0.735,1.949,1.246c0.5,0.511,0.861,1.092,1.085,1.74c0.223,0.649,0.335,1.305,0.335,1.964v6.227
			c0,0.318,0.016,0.697,0.048,1.134c0.031,0.437,0.084,0.884,0.159,1.341c0.075,0.457,0.192,0.925,0.352,1.405
			c0.159,0.478,0.367,0.921,0.623,1.324h6.578C216.224,184.696,215.799,183.761,215.48,182.823z M208.902,159.386
			c-0.362,0.831-0.852,1.554-1.469,2.172c-0.618,0.617-1.331,1.102-2.139,1.452c-0.81,0.353-1.672,0.527-2.586,0.527h-10.952v-8.271
			v-5.107h10.952c0.979,0,1.878,0.163,2.698,0.494c0.819,0.33,1.527,0.787,2.123,1.372c0.596,0.587,1.064,1.277,1.405,2.076
			c0.159,0.372,0.272,0.763,0.357,1.165c0.097,0.46,0.154,0.937,0.154,1.438C209.445,157.662,209.264,158.556,208.902,159.386z"/>
	</g>
	<polygon fill="#FFFFFF" points="251.062,180.302 251.062,167.208 251.062,161.877 251.062,155.267 251.062,150.159 
		273.094,150.159 273.094,144.826 245.028,144.826 245.028,155.267 245.028,185.633 274.052,185.633 274.052,180.302 	"/>
	<path fill="#FFFFFF" d="M344.375,144.826l-2.476,10.44l-4.581,19.318l-5.866-19.318l-3.17-10.44h-5.364
		c-1.01,3.442-2.036,6.945-3.061,10.44c-0.445,1.518-0.882,3.007-1.33,4.534c-1.479,5.046-2.954,10.059-4.422,15.04l-4.748-19.574
		l-2.532-10.44h-6.258l2.638,10.44l7.675,30.366h5.748c1.489-4.917,3.001-9.871,4.534-14.863c1.533-4.991,3.065-9.968,4.598-14.929
		l8.781,29.792h5.748l7.674-30.366l2.639-10.44H344.375z"/>
	<g>
		<path fill="none" d="M440.307,155.267c-0.36-0.527-0.744-1.026-1.17-1.469c-1.192-1.234-2.614-2.149-4.263-2.745
			c-1.649-0.597-3.434-0.894-5.35-0.894h-7.854v5.107v25.035h7.854c1.937,0,3.726-0.342,5.364-1.022
			c1.64-0.682,3.062-1.666,4.265-2.953c1.201-1.288,2.138-2.864,2.81-4.727c0.67-1.862,1.006-3.985,1.006-6.369
			c0-2.598-0.342-4.844-1.022-6.738C441.509,157.275,440.954,156.211,440.307,155.267z"/>
		<path fill="#FFFFFF" d="M447.855,157.278c-0.234-0.697-0.507-1.364-0.799-2.012c-0.743-1.645-1.664-3.134-2.777-4.454
			c-1.555-1.84-3.434-3.299-5.637-4.374s-4.678-1.612-7.424-1.612h-15.519v10.44v30.366h15.519c2.618,0,5.022-0.521,7.217-1.565
			c2.191-1.042,4.076-2.484,5.65-4.326c1.576-1.84,2.806-4.007,3.689-6.497c0.882-2.49,1.324-5.184,1.324-8.079
			C449.099,162.377,448.684,159.748,447.855,157.278z M441.963,171.6c-0.672,1.862-1.608,3.438-2.81,4.727
			c-1.203,1.287-2.625,2.271-4.265,2.953c-1.639,0.681-3.428,1.022-5.364,1.022h-7.854v-25.035v-5.107h7.854
			c1.916,0,3.7,0.297,5.35,0.894c1.648,0.596,3.07,1.511,4.263,2.745c0.426,0.442,0.81,0.941,1.17,1.469
			c0.647,0.944,1.202,2.009,1.64,3.226c0.681,1.895,1.022,4.141,1.022,6.738C442.969,167.614,442.633,169.737,441.963,171.6z"/>
	</g>
	<path fill="#FFFFFF" d="M503.105,155.267v16.892c0,1.533-0.285,2.885-0.861,4.056c-0.573,1.171-1.331,2.149-2.267,2.938
		c-0.936,0.787-1.99,1.382-3.16,1.788c-1.17,0.403-2.353,0.605-3.547,0.605c-1.084,0-2.171-0.218-3.255-0.655
		c-1.087-0.435-2.06-1.062-2.923-1.883c-0.861-0.819-1.56-1.814-2.091-2.986c-0.532-1.171-0.799-2.501-0.799-3.991v-16.764v-10.44
		h-6.065v10.44v16.478c0,2.468,0.451,4.646,1.355,6.528c0.904,1.885,2.081,3.455,3.529,4.711c1.447,1.255,3.075,2.202,4.884,2.841
		c1.81,0.639,3.621,0.958,5.43,0.958c1.257,0,2.517-0.144,3.784-0.431c1.266-0.288,2.486-0.719,3.656-1.293
		c1.171-0.575,2.261-1.282,3.273-2.124c1.01-0.841,1.893-1.814,2.649-2.921c0.755-1.106,1.352-2.337,1.788-3.688
		c0.438-1.352,0.654-2.837,0.654-4.454v-16.605H503.105z"/>
	<g>
		<path fill="none" d="M554.016,152.521c-0.347,0.927-0.684,1.834-1.023,2.746c-0.644,1.727-1.279,3.438-1.899,5.11
			c-0.948,2.555-1.931,5.225-2.953,8.014h11.525l-4.673-13.124L554.016,152.521z"/>
		<path fill="#FFFFFF" d="M561.365,155.267l-3.807-10.44h-7.152l-3.848,10.44l-11.19,30.366h6.48
			c0.681-1.937,1.399-3.942,2.157-6.019c0.754-2.075,1.481-4.082,2.186-6.02h15.454h6.403L561.365,155.267z M548.14,168.391
			c1.022-2.789,2.005-5.459,2.953-8.014c0.62-1.673,1.256-3.384,1.899-5.11c0.34-0.912,0.677-1.819,1.023-2.746l0.977,2.746
			l4.673,13.124H548.14z"/>
	</g>
	<polygon fill="#FFFFFF" points="658.549,144.826 658.549,150.159 671.576,150.159 671.576,155.267 671.576,185.633 
		677.579,185.633 677.579,155.267 677.579,150.159 690.607,150.159 690.607,144.826 	"/>
	<polygon fill="#FFFFFF" points="725.677,180.302 725.677,167.208 746.434,167.208 746.434,161.877 725.677,161.877 
		725.677,155.267 725.677,150.159 747.71,150.159 747.71,144.826 719.645,144.826 719.645,155.267 719.645,185.633 748.667,185.633 
		748.667,180.302 	"/>
	<path fill="#FFFFFF" d="M155.406,157.278c-0.235-0.697-0.506-1.364-0.798-2.012c-0.743-1.645-1.664-3.134-2.778-4.454
		c-1.554-1.84-3.433-3.299-5.635-4.374c-2.204-1.075-4.678-1.612-7.424-1.612h-15.518v5.333h5.971h7.855
		c1.916,0,3.699,0.297,5.349,0.894c1.649,0.596,3.07,1.511,4.262,2.745c0.427,0.442,0.81,0.941,1.17,1.469
		c0.647,0.944,1.202,2.009,1.64,3.226c0.681,1.895,1.021,4.141,1.021,6.738c0,2.384-0.335,4.507-1.005,6.369
		c-0.671,1.862-1.607,3.438-2.81,4.727c-1.203,1.287-2.625,2.271-4.263,2.953c-1.64,0.681-3.428,1.022-5.364,1.022h-7.855h-5.971
		v5.331h15.518c2.619,0,5.024-0.521,7.217-1.565c2.192-1.042,4.076-2.484,5.651-4.326c1.575-1.84,2.805-4.007,3.688-6.497
		c0.883-2.49,1.325-5.184,1.325-8.079C156.651,162.377,156.236,159.748,155.406,157.278z"/>
	<g>
		<path fill="none" d="M622.424,154.102c-0.342-0.799-0.811-1.489-1.405-2.076c-0.597-0.585-1.307-1.042-2.123-1.372
			c-0.82-0.331-1.72-0.494-2.7-0.494h-10.951v5.107v8.271h10.951c0.915,0,1.779-0.175,2.587-0.527
			c0.808-0.351,1.521-0.835,2.139-1.452c0.618-0.618,1.107-1.341,1.47-2.172c0.363-0.83,0.544-1.724,0.544-2.682
			c0-0.501-0.057-0.978-0.154-1.438C622.696,154.864,622.581,154.474,622.424,154.102z"/>
		<path fill="#FFFFFF" d="M628.49,174.233c0-0.767-0.068-1.537-0.208-2.314c-0.14-0.776-0.365-1.521-0.687-2.234
			c-0.317-0.713-0.739-1.368-1.262-1.965c-0.521-0.596-1.165-1.097-1.931-1.5c1.512-1.15,2.655-2.555,3.434-4.215
			c0.775-1.661,1.164-3.416,1.164-5.27c0-0.489-0.046-0.979-0.113-1.469c-0.124-0.921-0.354-1.848-0.716-2.777
			c-0.555-1.426-1.375-2.703-2.459-3.832c-1.087-1.129-2.427-2.049-4.024-2.762c-1.596-0.713-3.428-1.069-5.492-1.069h-16.987v10.44
			v30.366h6.036v-16.859h10.951c1.149,0,2.123,0.161,2.923,0.479c0.799,0.32,1.446,0.735,1.948,1.246
			c0.499,0.511,0.861,1.092,1.084,1.74c0.223,0.649,0.336,1.305,0.336,1.964v5.587h6.003V174.233z M622.391,159.386
			c-0.362,0.831-0.852,1.554-1.47,2.172c-0.618,0.617-1.331,1.102-2.139,1.452c-0.808,0.353-1.672,0.527-2.587,0.527h-10.951v-8.271
			v-5.107h10.951c0.98,0,1.88,0.163,2.7,0.494c0.816,0.33,1.526,0.787,2.123,1.372c0.595,0.587,1.063,1.277,1.405,2.076
			c0.157,0.372,0.271,0.763,0.356,1.165c0.098,0.46,0.154,0.937,0.154,1.438C622.935,157.662,622.754,158.556,622.391,159.386z"/>
	</g>
</g>
</svg>
